<svg width="197" height="147" viewBox="0 0 197 147" fill="none" xmlns="http://www.w3.org/2000/svg">
<path d="M190.198 146.75H35.6884C33.1484 146.75 31.0584 145.66 29.9584 143.75C28.8584 141.85 28.9584 139.49 30.2284 137.29L107.488 3.48002C108.758 1.28002 110.758 0.0200195 112.948 0.0200195C115.148 0.0200195 117.138 1.28002 118.408 3.48002L195.658 137.29C196.928 139.49 197.028 141.85 195.928 143.75C194.828 145.65 192.738 146.75 190.198 146.75ZM37.5384 139.37L188.348 139.38L112.948 8.77002L37.5384 139.37Z" fill="white"/>
<path d="M83.7392 146.73C81.5392 146.73 79.5492 145.47 78.2792 143.27L1.02916 9.46C-0.240836 7.26 -0.340836 4.9 0.759164 3C1.85916 1.1 3.94916 0 6.48916 0H160.999C163.539 0 165.629 1.09 166.729 3C167.829 4.91 167.729 7.26 166.459 9.46L89.2092 143.27C87.9292 145.47 85.9392 146.73 83.7392 146.73ZM8.33916 7.37L83.7392 137.98L159.149 7.38L8.33916 7.37Z" fill="white"/>
</svg>
